<?xml version="1.0" encoding="UTF-8"?>
<svg version="1.1" xmlns="http://www.w3.org/2000/svg" width="408" height="472">
<path d="M0 0 C134.64 0 269.28 0 408 0 C408 155.76 408 311.52 408 472 C273.36 472 138.72 472 0 472 C0 316.24 0 160.48 0 0 Z " fill="#FEFEFE" transform="translate(0,0)"/>
<path d="M0 0 C2.76615049 2.76615049 3.02540043 5.8572728 3.8125 9.5625 C5.14897035 15.55280774 6.65008141 21.44104586 8.4375 27.3125 C10.28753875 33.41960956 11.92514777 39.55074555 13.4375 45.75 C15.33568116 53.51699375 17.42586531 61.20897563 19.68139648 68.87988281 C21.50959441 75.13732617 23.18002441 81.4327558 24.83000183 87.73898315 C26.78426257 95.20136811 28.77309421 102.65426476 30.76953125 110.10546875 C31.26258255 111.94571373 31.26258255 111.94571373 31.76559448 113.82313538 C32.78091081 117.61134247 33.79669371 121.39942426 34.8125 125.1875 C35.51245744 127.79880464 36.21228488 130.41014411 36.91210938 133.02148438 C38.60762446 139.34777653 40.30361756 145.67394037 42 152 C50.00783437 150.19098961 57.97008271 148.27446339 65.8984375 146.14453125 C66.88415741 145.88178406 67.86987732 145.61903687 68.88546753 145.34832764 C70.97470557 144.79130965 73.06370142 144.23338255 75.15246582 143.67459106 C80.62388966 142.21087793 86.09700167 140.75351387 91.5703125 139.296875 C92.64800903 139.00998306 93.72570557 138.72309113 94.83605957 138.42750549 C103.62851101 136.09057464 112.43516172 133.81324125 121.25 131.5625 C130.44601489 129.21195724 139.59001566 126.73868861 148.70117188 124.07861328 C155.33550627 122.15307041 162.01421774 120.4649256 168.72705078 118.83666992 C175.12844739 117.26737375 181.4345707 115.45076174 187.70996094 113.43530273 C192.67906117 111.89302039 192.67906117 111.89302039 196 113 C159.37 149.63 122.74 186.26 85 224 C86.89139978 227.78279956 88.43769002 229.6849597 91.37857056 232.61907959 C92.29846268 233.54172104 93.2183548 234.46436249 94.16612244 235.41496277 C95.18829263 236.43005519 96.21055842 237.44505136 97.23291016 238.45996094 C98.30751273 239.53399927 99.3816749 240.60847838 100.45542908 241.68336487 C103.3701776 244.5986874 106.29105311 247.50780072 109.21305895 250.41584682 C112.26624767 253.45653627 115.31377666 256.50288731 118.36190796 259.54864502 C124.13418678 265.31470672 129.91154509 271.07565104 135.69074094 276.83477902 C142.27017801 283.39186433 148.84393953 289.95462699 155.41722798 296.51787519 C168.93850849 310.01824844 182.46690799 323.51146743 196 337 C192.7049672 338.09834427 192.00431165 337.93351881 188.81640625 336.9609375 C187.98141602 336.7127124 187.14642578 336.4644873 186.28613281 336.20874023 C185.38733398 335.93360596 184.48853516 335.65847168 183.5625 335.375 C176.32589835 333.22737547 169.08592962 331.21701836 161.75 329.4375 C155.69820706 327.9608085 149.71099724 326.371102 143.75 324.5625 C135.98241699 322.20961733 128.13794657 320.2300774 120.25097656 318.31860352 C113.50711588 316.67204901 106.82272251 314.85448804 100.13923645 312.98158264 C90.55795842 310.30388548 80.92916925 307.8089255 71.30273438 305.29956055 C61.16434125 302.65454212 51.0585861 299.93562758 41 297 C40.91459961 298.01610352 40.82919922 299.03220703 40.74121094 300.07910156 C39.89674619 306.77656796 37.91992083 313.23850112 36.140625 319.734375 C35.74994119 321.17704252 35.35979465 322.61985562 34.97015381 324.06280518 C33.94428536 327.85720435 32.91231204 331.64991392 31.87866211 335.44219971 C30.24114147 341.45349028 28.61195803 347.46704858 26.9838562 353.480896 C26.58887811 354.93966738 26.19363546 356.39836716 25.79812622 357.85699463 C23.27270358 367.17505579 20.80036184 376.50264727 18.52642822 385.88592529 C17.33053521 390.80490023 15.96521887 395.65465763 14.5 400.5 C12.434113 407.36425261 10.65607232 414.27000902 8.95629883 421.23339844 C6.57390715 430.8979767 3.796266 440.44838399 1 450 C-1.36594868 447.63405132 -1.64801975 446.20962278 -2.48046875 442.99609375 C-2.75358887 441.95912354 -3.02670898 440.92215332 -3.30810547 439.85375977 C-3.59830566 438.72639404 -3.88850586 437.59902832 -4.1875 436.4375 C-4.81778983 434.03874145 -5.44932937 431.64031097 -6.08203125 429.2421875 C-6.40252441 428.02370117 -6.72301758 426.80521484 -7.05322266 425.54980469 C-8.43465816 420.37031211 -9.90582551 415.21763304 -11.375 410.0625 C-14.69375862 398.34577313 -17.7267553 386.56022125 -20.71630859 374.75610352 C-22.71822198 366.86845427 -24.8072467 359.01275409 -27.00239563 351.176651 C-29.57513243 341.97917358 -32.04115995 332.75325098 -34.50415039 323.52587891 C-35.32650249 320.44758474 -36.15250959 317.3702842 -36.97851562 314.29296875 C-37.50282693 312.33078868 -38.02692391 310.36855132 -38.55078125 308.40625 C-38.79758133 307.48871948 -39.04438141 306.57118896 -39.29866028 305.62585449 C-39.52277084 304.78317017 -39.74688141 303.94048584 -39.9777832 303.07226562 C-40.17588089 302.33157837 -40.37397858 301.59089111 -40.57807922 300.82775879 C-41 299 -41 299 -41 297 C-41.53028809 297.1451001 -42.06057617 297.2902002 -42.60693359 297.43969727 C-62.06709623 302.76190454 -81.5280154 308.08131368 -101.0625 313.125 C-108.2362268 314.97784898 -115.34881097 316.95992852 -122.43969727 319.10595703 C-129.60872751 321.24228208 -136.8710622 322.98625861 -144.13427734 324.76953125 C-149.98793414 326.21694044 -155.79107695 327.75382162 -161.5625 329.5 C-168.4867482 331.58907177 -175.44772891 333.51666623 -182.4375 335.375 C-183.45207275 335.65021484 -184.46664551 335.92542969 -185.51196289 336.20898438 C-186.45547607 336.45712891 -187.39898926 336.70527344 -188.37109375 336.9609375 C-189.6384436 337.29810791 -189.6384436 337.29810791 -190.93139648 337.64208984 C-193 338 -193 338 -195 337 C-158.37 300.37 -121.74 263.74 -84 226 C-85.89139978 222.21720044 -87.43769002 220.3150403 -90.37857056 217.38092041 C-91.75840874 215.99695824 -91.75840874 215.99695824 -93.16612244 214.58503723 C-94.18829263 213.56994481 -95.21055842 212.55494864 -96.23291016 211.54003906 C-97.30751273 210.46600073 -98.3816749 209.39152162 -99.45542908 208.31663513 C-102.3701776 205.4013126 -105.29105311 202.49219928 -108.21305895 199.58415318 C-111.26624767 196.54346373 -114.31377666 193.49711269 -117.36190796 190.45135498 C-123.13418678 184.68529328 -128.91154509 178.92434896 -134.69074094 173.16522098 C-141.27017801 166.60813567 -147.84393953 160.04537301 -154.41722798 153.48212481 C-167.93850849 139.98175156 -181.46690799 126.48853257 -195 113 C-192.35447837 111.67723918 -191.34418894 112.24893361 -188.51171875 113.00390625 C-187.58883057 113.24689453 -186.66594238 113.48988281 -185.71508789 113.74023438 C-184.21643188 114.14725586 -184.21643188 114.14725586 -182.6875 114.5625 C-181.65294678 114.83771484 -180.61839355 115.11292969 -179.55249023 115.39648438 C-172.0033439 117.41864912 -164.4931911 119.56630602 -156.98901367 121.74829102 C-149.35656286 123.94643114 -141.66366675 125.8563917 -133.95043945 127.74780273 C-126.46267032 129.59786419 -119.05584767 131.66049331 -111.65234375 133.8203125 C-105.79812335 135.51705923 -99.92091644 137.05431634 -94 138.5 C-86.29194569 140.38499855 -78.66343805 142.47726264 -71.04223633 144.68603516 C-61.06068299 147.57634176 -51.0313355 150.28851182 -41 153 C-40.89858704 152.44331131 -40.79717407 151.88662262 -40.69268799 151.31306458 C-39.24377253 143.70108169 -37.29719261 136.24426518 -35.296875 128.76171875 C-34.9327515 127.39147974 -34.56884421 126.02118327 -34.20513916 124.65083313 C-33.4438601 121.78517896 -32.68050121 118.92008994 -31.91552734 116.05541992 C-30.95298374 112.45053659 -29.99482324 108.844507 -29.03809261 105.23807716 C-25.4418508 91.6868588 -21.80712029 78.15260445 -17.9099884 64.68406677 C-16.09851889 58.4078188 -14.46111371 52.10255025 -12.9375 45.75 C-11.05848101 38.07620521 -9.04821357 30.47330941 -6.76245117 22.91088867 C-4.95817455 16.93712093 -3.35996648 10.91987046 -1.796875 4.87890625 C-1 2 -1 2 0 0 Z " fill="#E4012B" transform="translate(204,11)"/>
</svg>
